<?xml version="1.0" standalone="no"?>
<!DOCTYPE svg PUBLIC "-//W3C//DTD SVG 20010904//EN"
 "http://www.w3.org/TR/2001/REC-SVG-20010904/DTD/svg10.dtd">
<svg version="1.0" xmlns="http://www.w3.org/2000/svg"
 width="32.000000pt" height="32.000000pt" viewBox="0 0 32.000000 32.000000"
 preserveAspectRatio="xMidYMid meet">
<metadata>
Created by potrace 1.16, written by Peter Selinger 2001-2019
</metadata>
<g transform="translate(0.000000,32.000000) scale(0.100000,-0.100000)"
fill="#000000" stroke="none">
<path d="M0 160 l0 -160 160 0 160 0 0 160 0 160 -160 0 -160 0 0 -160z m310
85 l0 -66 -52 2 c-29 1 -55 0 -58 -1 -18 -7 -50 -5 -50 3 0 5 -6 7 -14 4 -11
-4 -13 3 -9 34 5 35 3 39 -16 39 -19 0 -21 -6 -21 -51 0 -36 -4 -49 -12 -47
-7 3 -14 15 -16 29 -6 55 -13 69 -32 69 -15 0 -20 7 -20 25 l0 25 150 0 150 0
0 -65z"/>
</g>
</svg>
